HIERARCHY
ROOT Hips
{
	OFFSET -0.066283 88.859909 3.106752
	CHANNELS 6 Xposition Yposition Zposition Zrotation Yrotation Xrotation 
	JOINT Spine
	{
		OFFSET -0.000000 8.814246 -2.080107
		CHANNELS 3 Zrotation Yrotation Xrotation
		JOINT Spine1
		{
			OFFSET -0.000000 8.844141 0.000000
			CHANNELS 3 Zrotation Yrotation Xrotation
			JOINT Spine2
			{
				OFFSET 0.000000 11.682268 0.000000
				CHANNELS 3 Zrotation Yrotation Xrotation
				JOINT Spine3
				{
					OFFSET -0.000000 11.746700 0.000000
					CHANNELS 3 Zrotation Yrotation Xrotation
					JOINT Neck
					{
						OFFSET -0.000000 17.658264 0.000000
						CHANNELS 3 Zrotation Yrotation Xrotation
						JOINT Neck1
						{
							OFFSET 0.000000 5.101515 -0.000000
							CHANNELS 3 Zrotation Yrotation Xrotation
							JOINT Head
							{
								OFFSET -0.000000 5.101515 -0.000000
								CHANNELS 3 Zrotation Yrotation Xrotation
								JOINT HeadEnd
								{
									OFFSET 0.000000 11.655085 -0.000000
									CHANNELS 3 Zrotation Yrotation Xrotation
									End Site
									{
										OFFSET 0.000000 0.000000 0.000000
									}
								}
							}
						}
					}
					JOINT RightShoulder
					{
						OFFSET -2.625389 11.175210 -0.000000
						CHANNELS 3 Zrotation Yrotation Xrotation
						JOINT RightArm
						{
							OFFSET 0.000000 10.434715 -0.000000
							CHANNELS 3 Zrotation Yrotation Xrotation
							JOINT RightForeArm
							{
								OFFSET -0.000000 29.628420 0.000000
								CHANNELS 3 Zrotation Yrotation Xrotation
								JOINT RightHand
								{
									OFFSET -0.000000 22.857611 0.000000
									CHANNELS 3 Zrotation Yrotation Xrotation
									JOINT RightHandThumb1
									{
										OFFSET -2.867323 3.959563 2.944291
										CHANNELS 3 Zrotation Yrotation Xrotation
										JOINT RightHandThumb2
										{
											OFFSET -0.000000 3.350399 0.000000
											CHANNELS 3 Zrotation Yrotation Xrotation
											JOINT RightHandThumb3
											{
												OFFSET -0.000000 3.756509 -0.000000
												CHANNELS 3 Zrotation Yrotation Xrotation
												JOINT RightHandThumb4
												{
													OFFSET -0.000000 3.147345 0.000000
													CHANNELS 3 Zrotation Yrotation Xrotation
													End Site
													{
														OFFSET 0.000000 0.000000 0.000000
													}
												}
											}
										}
									}
									JOINT RightHandIndex1
									{
										OFFSET -0.086752 10.030893 2.345280
										CHANNELS 3 Zrotation Yrotation Xrotation
										JOINT RightHandIndex2
										{
											OFFSET 0.000000 4.061090 -0.000000
											CHANNELS 3 Zrotation Yrotation Xrotation
											JOINT RightHandIndex3
											{
												OFFSET 0.000000 3.248873 -0.000000
												CHANNELS 3 Zrotation Yrotation Xrotation
												JOINT RightHandIndex4
												{
													OFFSET 0.000000 2.639709 0.000000
													CHANNELS 3 Zrotation Yrotation Xrotation
													End Site
													{
														OFFSET 0.000000 0.000000 0.000000
													}
												}
											}
										}
									}
									JOINT RightHandMiddle1
									{
										OFFSET 0.104102 9.502952 0.006768
										CHANNELS 3 Zrotation Yrotation Xrotation
										JOINT RightHandMiddle2
										{
											OFFSET 0.000000 4.568727 0.000000
											CHANNELS 3 Zrotation Yrotation Xrotation
											JOINT RightHandMiddle3
											{
												OFFSET 0.000000 3.654981 -0.000000
												CHANNELS 3 Zrotation Yrotation Xrotation
												JOINT RightHandMiddle4
												{
													OFFSET -0.000000 2.741236 0.000000
													CHANNELS 3 Zrotation Yrotation Xrotation
													End Site
													{
														OFFSET 0.000000 0.000000 0.000000
													}
												}
											}
										}
									}
									JOINT RightHandRing1
									{
										OFFSET 0.086752 8.921708 -2.267442
										CHANNELS 3 Zrotation Yrotation Xrotation
										JOINT RightHandRing2
										{
											OFFSET 0.000000 4.061090 -0.000000
											CHANNELS 3 Zrotation Yrotation Xrotation
											JOINT RightHandRing3
											{
												OFFSET -0.000000 3.654981 0.000000
												CHANNELS 3 Zrotation Yrotation Xrotation
												JOINT RightHandRing4
												{
													OFFSET -0.000000 2.741236 0.000000
													CHANNELS 3 Zrotation Yrotation Xrotation
													End Site
													{
														OFFSET 0.000000 0.000000 0.000000
													}
												}
											}
										}
									}
									JOINT RightHandPinky1
									{
										OFFSET -0.173504 7.976997 -4.467199
										CHANNELS 3 Zrotation Yrotation Xrotation
										JOINT RightHandPinky2
										{
											OFFSET -0.000000 3.350399 0.000000
											CHANNELS 3 Zrotation Yrotation Xrotation
											JOINT RightHandPinky3
											{
												OFFSET 0.000000 2.842763 0.000000
												CHANNELS 3 Zrotation Yrotation Xrotation
												JOINT RightHandPinky4
												{
													OFFSET 0.000000 2.639709 0.000000
													CHANNELS 3 Zrotation Yrotation Xrotation
													End Site
													{
														OFFSET 0.000000 0.000000 0.000000
													}
												}
											}
										}
									}
									JOINT RightForeArmEnd
									{
										OFFSET 0.000000 0.000000 0.000000
										CHANNELS 3 Zrotation Yrotation Xrotation
										End Site
										{
											OFFSET 0.000000 0.000000 0.000000
										}
									}
								}
								JOINT RightArmEnd
								{
									OFFSET 0.000000 0.000000 0.000000
									CHANNELS 3 Zrotation Yrotation Xrotation
									End Site
									{
										OFFSET 0.000000 0.000000 0.000000
									}
								}
							}
						}
					}
					JOINT LeftShoulder
					{
						OFFSET 2.625389 11.175210 0.000000
						CHANNELS 3 Zrotation Yrotation Xrotation
						JOINT LeftArm
						{
							OFFSET -0.000000 10.813635 -0.000000
							CHANNELS 3 Zrotation Yrotation Xrotation
							JOINT LeftForeArm
							{
								OFFSET -0.000000 28.724781 -0.000000
								CHANNELS 3 Zrotation Yrotation Xrotation
								JOINT LeftHand
								{
									OFFSET 0.644384 25.716167 -0.328871
									CHANNELS 3 Zrotation Yrotation Xrotation
									JOINT LeftHandThumb1
									{
										OFFSET 2.867323 3.959563 2.944291
										CHANNELS 3 Zrotation Yrotation Xrotation
										JOINT LeftHandThumb2
										{
											OFFSET 0.000000 3.350399 0.000000
											CHANNELS 3 Zrotation Yrotation Xrotation
											JOINT LeftHandThumb3
											{
												OFFSET -0.000000 3.756509 -0.000000
												CHANNELS 3 Zrotation Yrotation Xrotation
												JOINT LeftHandThumb4
												{
													OFFSET 0.000000 3.100000 0.000000
													CHANNELS 3 Zrotation Yrotation Xrotation
													End Site
													{
														OFFSET 0.000000 0.000000 0.000000
													}
												}
											}
										}
									}
									JOINT LeftHandIndex1
									{
										OFFSET 0.086752 10.030893 2.345280
										CHANNELS 3 Zrotation Yrotation Xrotation
										JOINT LeftHandIndex2
										{
											OFFSET 0.000000 4.061090 0.000000
											CHANNELS 3 Zrotation Yrotation Xrotation
											JOINT LeftHandIndex3
											{
												OFFSET -0.000000 3.248873 -0.000000
												CHANNELS 3 Zrotation Yrotation Xrotation
												JOINT LeftHandIndex4
												{
													OFFSET 0.000000 2.639709 0.000000
													CHANNELS 3 Zrotation Yrotation Xrotation
													End Site
													{
														OFFSET 0.000000 0.000000 0.000000
													}
												}
											}
										}
									}
									JOINT LeftHandMiddle1
									{
										OFFSET -0.104102 9.502952 0.006768
										CHANNELS 3 Zrotation Yrotation Xrotation
										JOINT LeftHandMiddle2
										{
											OFFSET -0.000000 4.568727 -0.000000
											CHANNELS 3 Zrotation Yrotation Xrotation
											JOINT LeftHandMiddle3
											{
												OFFSET -0.000000 3.654981 -0.000000
												CHANNELS 3 Zrotation Yrotation Xrotation
												JOINT LeftHandMiddle4
												{
													OFFSET 0.000000 2.741236 0.000000
													CHANNELS 3 Zrotation Yrotation Xrotation
													End Site
													{
														OFFSET 0.000000 0.000000 0.000000
													}
												}
											}
										}
									}
									JOINT LeftHandRing1
									{
										OFFSET -0.086752 8.921708 -2.267442
										CHANNELS 3 Zrotation Yrotation Xrotation
										JOINT LeftHandRing2
										{
											OFFSET 0.000000 4.061090 0.000000
											CHANNELS 3 Zrotation Yrotation Xrotation
											JOINT LeftHandRing3
											{
												OFFSET 0.000000 3.654981 -0.000000
												CHANNELS 3 Zrotation Yrotation Xrotation
												JOINT LeftHandRing4
												{
													OFFSET -0.000000 2.741236 -0.000000
													CHANNELS 3 Zrotation Yrotation Xrotation
													End Site
													{
														OFFSET 0.000000 0.000000 0.000000
													}
												}
											}
										}
									}
									JOINT LeftHandPinky1
									{
										OFFSET 0.173504 7.976997 -4.467199
										CHANNELS 3 Zrotation Yrotation Xrotation
										JOINT LeftHandPinky2
										{
											OFFSET -0.000000 3.350399 -0.000000
											CHANNELS 3 Zrotation Yrotation Xrotation
											JOINT LeftHandPinky3
											{
												OFFSET 0.000000 2.842763 -0.000000
												CHANNELS 3 Zrotation Yrotation Xrotation
												JOINT LeftHandPinky4
												{
													OFFSET -0.000000 2.639709 -0.000000
													CHANNELS 3 Zrotation Yrotation Xrotation
													End Site
													{
														OFFSET 0.000000 0.000000 0.000000
													}
												}
											}
										}
									}
									JOINT LeftForeArmEnd
									{
										OFFSET 0.000000 0.000000 0.000000
										CHANNELS 3 Zrotation Yrotation Xrotation
										End Site
										{
											OFFSET 0.000000 0.000000 0.000000
										}
									}
								}
								JOINT LeftArmEnd
								{
									OFFSET 0.000000 0.000000 0.000000
									CHANNELS 3 Zrotation Yrotation Xrotation
									End Site
									{
										OFFSET 0.000000 0.000000 0.000000
									}
								}
							}
						}
					}
				}
			}
		}
	}
	JOINT RightUpLeg
	{
		OFFSET -11.289943 -0.000000 0.000000
		CHANNELS 3 Zrotation Yrotation Xrotation
		JOINT RightLeg
		{
			OFFSET 0.000000 -38.200325 -0.000000
			CHANNELS 3 Zrotation Yrotation Xrotation
			JOINT RightFoot
			{
				OFFSET -0.000000 -39.900856 0.000000
				CHANNELS 3 Zrotation Yrotation Xrotation
				JOINT RightToeBase
				{
					OFFSET 0.000000 0.000000 15.261641
					CHANNELS 3 Zrotation Yrotation Xrotation
					JOINT RightToeBaseEnd
					{
						OFFSET 0.000000 0.000000 7.370709
						CHANNELS 3 Zrotation Yrotation Xrotation
						End Site
						{
							OFFSET 0.000000 0.000000 0.000000
						}
					}
				}
				JOINT RightLegEnd
				{
					OFFSET 0.000000 0.000000 0.000000
					CHANNELS 3 Zrotation Yrotation Xrotation
					End Site
					{
						OFFSET 0.000000 0.000000 0.000000
					}
				}
			}
			JOINT RightUpLegEnd
			{
				OFFSET 0.000000 0.000000 0.000000
				CHANNELS 3 Zrotation Yrotation Xrotation
				End Site
				{
					OFFSET 0.000000 0.000000 0.000000
				}
			}
		}
	}
	JOINT LeftUpLeg
	{
		OFFSET 11.315661 0.000000 0.000000
		CHANNELS 3 Zrotation Yrotation Xrotation
		JOINT LeftLeg
		{
			OFFSET 0.000000 -38.200325 -0.000000
			CHANNELS 3 Zrotation Yrotation Xrotation
			JOINT LeftFoot
			{
				OFFSET 0.000000 -39.900856 -0.000000
				CHANNELS 3 Zrotation Yrotation Xrotation
				JOINT LeftToeBase
				{
					OFFSET 0.000000 -0.000000 15.261641
					CHANNELS 3 Zrotation Yrotation Xrotation
					JOINT LeftToeBaseEnd
					{
						OFFSET -0.000000 0.000000 7.539996
						CHANNELS 3 Zrotation Yrotation Xrotation
						End Site
						{
							OFFSET 0.000000 0.000000 0.000000
						}
					}
				}
				JOINT LeftLegEnd
				{
					OFFSET 0.000000 0.000000 0.000000
					CHANNELS 3 Zrotation Yrotation Xrotation
					End Site
					{
						OFFSET 0.000000 0.000000 0.000000
					}
				}
			}
			JOINT LeftUpLegEnd
			{
				OFFSET 0.000000 0.000000 0.000000
				CHANNELS 3 Zrotation Yrotation Xrotation
				End Site
				{
					OFFSET 0.000000 0.000000 0.000000
				}
			}
		}
	}
}
MOTION
Frames: 5
Frame Time: 0.016667
-0.066283 88.859909 3.106752 -0.554998 -0.063200 -6.496325 0.035903 -0.002268 5.888138 1.007702 -0.066753 0.859935 -0.482675 2.416700 3.828048 -0.160674 0.780135 1.924824 -2.324279 -0.847468 5.016633 -0.365139 -2.116586 -3.221972 0.720381 0.853138 -18.220909 0.000000 0.000000 0.000000 92.020271 -0.208433 5.546823 69.638977 -19.089216 -1.147147 0.059477 8.331356 28.544134 2.918324 25.791067 -8.931848 11.217805 -1.887472 39.615406 0.000000 0.000000 -27.315002 0.000000 0.000000 -18.968748 0.000000 0.000000 0.000000 13.213602 16.646936 -12.039722 11.238620 -0.665555 -3.398387 11.238004 0.315584 -3.203499 0.000000 0.000000 0.000000 14.610597 6.862490 -11.429158 11.135071 -0.860474 -1.356066 11.133999 0.111766 -1.162957 0.000000 0.000000 0.000000 19.862411 -8.846701 -10.677217 12.650033 1.760184 1.978157 12.644374 -0.177743 1.540332 0.000000 0.000000 0.000000 23.790291 -25.600758 -10.773308 12.395708 3.368127 5.825091 12.374576 -0.538114 4.967071 0.000000 0.000000 0.000000 0.000000 0.000000 0.000000 0.000000 0.000000 0.000000 -90.685371 0.125338 9.277699 -68.205345 33.746468 -2.114506 -0.906679 -12.804414 36.500160 -5.004631 -13.813062 -13.796777 -10.637670 1.840801 39.870987 0.000000 0.000000 -25.919998 0.000000 0.000000 -18.000004 0.000000 0.000000 0.000000 -15.727524 16.759449 -9.934354 -8.634541 -0.781970 2.617436 -8.634687 0.185794 2.467350 0.000000 0.000000 0.000000 -12.632174 6.870213 -11.103483 -7.858750 -0.942948 0.960031 -7.861093 -0.138773 0.818618 0.000000 0.000000 0.000000 -9.446996 -8.823497 -11.456291 -7.804728 1.917102 -1.226388 -7.800338 -0.064224 -0.954850 0.000000 0.000000 0.000000 -4.422287 -25.333719 -13.915033 -6.810095 3.806906 -3.213968 -6.795249 -0.160380 -2.740026 0.000000 0.000000 0.000000 0.000000 0.000000 0.000000 0.000000 0.000000 0.000000 1.904249 6.541767 7.475135 -0.037531 -0.408927 7.546108 -4.730400 1.738853 18.019159 -0.347465 0.340706 -20.620296 0.000000 0.000000 0.000000 0.000000 0.000000 0.000000 0.000000 0.000000 0.000000 1.163178 10.511868 11.895180 0.051614 0.626121 3.761402 1.290193 7.867616 18.489267 0.739732 -0.851381 -19.069050 0.000000 0.000000 0.000000 0.000000 0.000000 0.000000 0.000000 0.000000 0.000000 
-0.019718 88.694611 3.050749 0.105943 0.184739 -8.169302 -1.179658 0.257566 6.913050 1.113264 -0.156175 2.260340 -0.673336 1.747224 3.646753 1.118129 0.207305 2.693898 -2.910223 -0.466028 3.533882 -0.186056 -1.415390 -3.998489 0.251136 0.413602 -18.446692 0.000000 0.000000 0.000000 90.726089 -0.155319 6.383660 69.419571 -19.608677 0.437750 0.138053 9.793693 28.646000 4.603649 24.403679 -8.676394 11.072202 -1.875290 39.686516 -0.000012 0.000020 -27.067539 -0.000003 0.000035 -18.784407 0.000002 -0.000004 -0.000011 13.583082 16.395039 -9.727375 10.579130 -0.633523 -2.785928 10.644210 0.316813 -2.614475 -0.000018 0.000015 -0.000023 14.654427 6.784728 -10.346419 10.575547 -0.835773 -1.126395 10.601560 0.116032 -0.963255 0.000020 0.000010 0.000006 19.860964 -8.734893 -10.577984 12.074707 1.737368 1.629665 12.025806 -0.167869 1.261198 -0.000030 -0.000177 0.000009 24.839125 -24.714720 -12.473382 12.176283 3.256080 4.873162 11.954531 -0.531194 4.161062 0.000315 -0.000003 0.000020 0.000000 0.000000 0.000000 0.000000 0.000000 0.000000 -90.949471 0.349666 8.719507 -67.370964 32.620144 -2.535143 -1.199816 -13.973629 37.271374 -5.733634 -11.887909 -14.576257 -10.510684 1.817373 39.937748 0.000003 0.000015 -25.545635 0.000020 -0.000024 -17.761450 -0.000302 -0.000001 0.000109 -15.093959 16.530312 -10.017947 -8.591565 -0.686569 2.634472 -8.839821 0.254625 2.490568 0.000003 0.000894 0.000005 -12.413090 6.832951 -10.847865 -8.277278 -0.868105 1.023555 -8.025453 0.087348 0.880474 -0.000036 -0.000038 -0.000064 -9.214926 -8.720735 -10.958350 -8.074746 1.802839 -1.443352 -7.925059 -0.106938 -1.102074 -0.000139 0.000009 0.000002 -4.390126 -24.827209 -13.580388 -6.974373 3.461836 -3.888367 -7.021227 -0.327546 -3.352420 -0.000103 -0.000009 -0.000034 0.000000 0.000000 0.000000 0.000000 0.000000 0.000000 1.393256 5.469764 7.441370 -0.067802 -0.392234 9.339823 -4.559852 0.815906 17.414066 -0.395722 0.327246 -21.272171 0.000000 0.000000 0.000000 0.000000 0.000000 0.000000 0.000000 0.000000 0.000000 1.053853 9.472631 12.146828 0.043032 0.667383 5.946798 1.167194 9.291197 17.409605 0.686302 -0.737578 -19.556469 0.000000 0.000000 0.000000 0.000000 0.000000 0.000000 0.000000 0.000000 0.000000 
-0.027657 88.697334 3.015854 0.071060 0.241921 -8.265948 -1.166701 0.240865 6.993917 1.118251 -0.151115 2.293539 -0.722940 1.717040 3.678505 1.170154 0.168160 2.659259 -2.946197 -0.399920 3.659584 -0.161626 -1.357292 -3.836302 0.202141 0.395387 -18.472239 0.000000 0.000000 0.000000 90.728416 -0.128254 6.393342 69.326294 -19.800987 0.624828 0.089548 9.785323 28.518232 4.790613 24.437580 -8.830879 11.018620 -1.870900 39.711876 -0.000008 0.000032 -26.948538 -0.000006 0.000031 -18.701965 0.000010 -0.000000 -0.000020 13.449758 16.387747 -9.575656 10.457220 -0.648463 -2.730203 10.524566 0.302689 -2.561956 -0.000001 0.000025 -0.000022 14.480347 6.779961 -10.204712 10.429125 -0.842193 -1.102438 10.440953 0.110624 -0.942782 0.000019 -0.000015 0.000000 19.680372 -8.725005 -10.499283 11.903100 1.747676 1.598904 11.845104 -0.159985 1.235869 -0.000035 -0.000056 -0.000000 24.696741 -24.684402 -12.489905 12.019662 3.286112 4.791424 11.781019 -0.509224 4.088553 0.000276 0.000006 0.000009 0.000000 0.000000 0.000000 0.000000 0.000000 0.000000 -90.889107 0.299061 8.824306 -67.625160 32.513653 -2.659527 -1.178375 -13.852561 37.270069 -5.575424 -11.899663 -14.635518 -10.506538 1.811759 39.943161 0.000008 0.000019 -25.529997 0.000023 -0.000013 -17.746305 -0.000477 0.000005 0.000116 -15.186028 16.530169 -9.966955 -8.635820 -0.693375 2.616240 -8.881721 0.248838 2.471474 0.000016 0.000805 0.000010 -12.483316 6.832954 -10.810925 -8.294523 -0.871056 1.011853 -8.046388 0.084896 0.871780 -0.000021 -0.000035 -0.000109 -9.341218 -8.717813 -10.918002 -8.090120 1.808046 -1.430863 -7.944770 -0.103582 -1.093342 0.000033 0.000015 0.000005 -4.576485 -24.842880 -13.552725 -7.020229 3.475385 -3.852418 -7.052952 -0.317411 -3.324714 -0.000074 0.000006 -0.000050 0.000000 0.000000 0.000000 0.000000 0.000000 0.000000 1.450096 5.432765 7.478214 -0.064689 -0.381973 9.438798 -4.583834 0.838530 17.406693 -0.382571 0.334478 -21.238991 0.000000 0.000000 0.000000 0.000000 0.000000 0.000000 0.000000 0.000000 0.000000 1.080511 9.452109 12.287834 0.043050 0.669204 5.795578 1.128761 9.157529 17.484207 0.696964 -0.753402 -19.542393 0.000000 0.000000 0.000000 0.000000 0.000000 0.000000 0.000000 0.000000 0.000000 
-0.036267 88.701172 2.979473 0.075572 0.306866 -8.329762 -1.177315 0.235706 7.065207 1.117505 -0.146342 2.318545 -0.745291 1.700331 3.700962 1.220225 0.150455 2.612281 -2.998704 -0.306245 3.677190 -0.138048 -1.274940 -3.765879 0.160902 0.390206 -18.510077 0.000000 0.000000 0.000000 90.707077 -0.114841 6.408926 69.389633 -19.767679 0.671462 0.064346 9.873161 28.366806 4.855582 24.466326 -8.925570 10.962198 -1.865085 39.737957 -0.000005 0.000032 -26.819229 -0.000008 0.000033 -18.610115 0.000010 -0.000001 -0.000019 13.234600 16.389925 -9.476070 10.358160 -0.660652 -2.675321 10.426393 0.290849 -2.510989 0.000000 0.000024 -0.000024 14.239258 6.780627 -10.111231 10.306484 -0.847509 -1.079932 10.309358 0.106013 -0.922994 0.000019 -0.000024 0.000003 19.440805 -8.725502 -10.456745 11.758001 1.755641 1.570085 11.700788 -0.153662 1.212997 -0.000034 0.000084 0.000001 24.506260 -24.679733 -12.525517 11.894707 3.309393 4.722353 11.641200 -0.492279 4.026086 0.000245 0.000006 -0.000000 0.000000 0.000000 0.000000 0.000000 0.000000 0.000000 -90.789139 0.262360 8.916494 -68.016472 32.304558 -2.922709 -1.176552 -13.864171 37.366020 -5.513587 -11.780818 -14.517857 -10.513253 1.809745 39.939808 0.000006 0.000020 -25.549488 0.000020 -0.000013 -17.759428 -0.000632 0.000004 0.000145 -15.251832 16.524191 -9.880154 -8.680159 -0.700017 2.590189 -8.924156 0.243193 2.444071 0.000013 0.000707 0.000011 -12.532926 6.831005 -10.757808 -8.323913 -0.873630 0.998611 -8.074197 0.082538 0.861032 -0.000012 -0.000036 -0.000137 -9.421267 -8.718263 -10.892229 -8.127192 1.811915 -1.416378 -7.980892 -0.100966 -1.082237 0.000124 0.000015 0.000004 -4.701236 -24.858398 -13.553837 -7.078830 3.485558 -3.814729 -7.096492 -0.309704 -3.291620 -0.000085 0.000005 -0.000051 0.000000 0.000000 0.000000 0.000000 0.000000 0.000000 1.447673 5.418206 7.494034 -0.062948 -0.372579 9.529509 -4.611163 0.890219 17.406111 -0.371938 0.334024 -21.246216 0.000000 0.000000 0.000000 0.000000 0.000000 0.000000 0.000000 0.000000 0.000000 1.078126 9.449703 12.384098 0.042462 0.669669 5.677325 1.109159 9.100887 17.564375 0.703951 -0.759462 -19.541586 0.000000 0.000000 0.000000 0.000000 0.000000 0.000000 0.000000 0.000000 0.000000 
-0.041245 88.705658 2.946697 0.113471 0.367910 -8.380175 -1.198894 0.237580 7.114107 1.106305 -0.143463 2.338810 -0.756944 1.693442 3.722833 1.250871 0.145675 2.579903 -3.060745 -0.180177 3.643068 -0.110569 -1.161613 -3.747436 0.126227 0.393869 -18.558884 0.000000 0.000000 0.000000 90.649086 -0.099987 6.452760 69.545341 -19.600744 0.650588 0.045194 10.000609 28.254871 4.840765 24.586779 -8.972937 10.900166 -1.858252 39.767170 -0.000004 0.000031 -26.672514 -0.000009 0.000035 -18.504501 0.000009 -0.000001 -0.000019 12.972382 16.395090 -9.365515 10.262177 -0.670127 -2.629804 10.328518 0.281682 -2.469574 -0.000000 0.000024 -0.000024 13.967170 6.783056 -10.012662 10.192625 -0.852008 -1.061050 10.185551 0.102249 -0.906254 0.000019 -0.000029 0.000004 19.166449 -8.730803 -10.419068 11.607866 1.762209 1.544703 11.552546 -0.148586 1.193418 -0.000032 0.000220 0.000001 24.277555 -24.691076 -12.564806 11.759629 3.329146 4.662480 11.497543 -0.478286 3.973380 0.000223 0.000005 -0.000005 0.000000 0.000000 0.000000 0.000000 0.000000 0.000000 -90.672318 0.234794 8.990883 -68.400169 31.974962 -3.121059 -1.177864 -13.943426 37.454716 -5.442707 -11.582313 -14.444326 -10.521261 1.809578 39.934685 0.000005 0.000020 -25.571348 0.000017 -0.000014 -17.775656 -0.000753 0.000004 0.000187 -15.307699 16.512844 -9.761909 -8.732956 -0.706111 2.562125 -8.970775 0.237644 2.415125 0.000011 0.000624 0.000012 -12.578510 6.826914 -10.681013 -8.366513 -0.875886 0.985248 -8.116028 0.080377 0.850158 0.000015 -0.000036 -0.000153 -9.489298 -8.719197 -10.859977 -8.180537 1.814963 -1.402071 -8.032658 -0.098795 -1.071074 0.000158 0.000016 0.000004 -4.802935 -24.871988 -13.562230 -7.144947 3.493476 -3.779914 -7.152866 -0.303731 -3.259784 -0.000127 0.000004 -0.000052 0.000000 0.000000 0.000000 0.000000 0.000000 0.000000 1.402133 5.400560 7.505748 -0.062151 -0.363897 9.628199 -4.634002 0.968380 17.393351 -0.362868 0.328207 -21.262350 0.000000 0.000000 0.000000 0.000000 0.000000 0.000000 0.000000 0.000000 0.000000 1.055757 9.475441 12.460111 0.040929 0.666901 5.598102 1.110265 9.101432 17.651365 0.708651 -0.760167 -19.542313 0.000000 0.000000 0.000000 0.000000 0.000000 0.000000 0.000000 0.000000 0.000000 
